<?xml version="1.0" encoding="UTF-8"?>
<svg width="82px" height="58px" viewBox="0 0 82 58" version="1.1" xmlns="http://www.w3.org/2000/svg" xmlns:xlink="http://www.w3.org/1999/xlink">
    <!-- Generator: Sketch 3.7.2 (28276) - http://www.bohemiancoding.com/sketch -->
    <title>Page 1</title>
    <desc>Created with Sketch.</desc>
    <defs>
        <filter x="-50%" y="-50%" width="200%" height="200%" filterUnits="objectBoundingBox" id="filter-1">
            <feOffset dx="0" dy="2" in="SourceAlpha" result="shadowOffsetOuter1"></feOffset>
            <feGaussianBlur stdDeviation="4.5" in="shadowOffsetOuter1" result="shadowBlurOuter1"></feGaussianBlur>
            <feColorMatrix values="0 0 0 0 0   0 0 0 0 0   0 0 0 0 0  0 0 0 0.3 0" type="matrix" in="shadowBlurOuter1" result="shadowMatrixOuter1"></feColorMatrix>
            <feMerge>
                <feMergeNode in="shadowMatrixOuter1"></feMergeNode>
                <feMergeNode in="SourceGraphic"></feMergeNode>
            </feMerge>
        </filter>
        <polygon id="path-2" points="10.619908 0.202298851 0.168413793 0.202298851 0.168413793 17.3161839 10.619908 17.3161839 10.619908 0.202298851"></polygon>
    </defs>
    <g id="Page-1" stroke="none" stroke-width="1" fill="none" fill-rule="evenodd">
        <g filter="url(#filter-1)" transform="translate(9.000000, 7.000000)">
            <path d="M3.8377931,13.3012414 C3.8377931,13.3495172 3.84147126,13.446069 3.84974713,13.5908966 C3.85756322,13.7357241 3.86216092,13.8888276 3.86216092,14.0492874 C3.86216092,14.2106667 3.86583908,14.3633103 3.87411494,14.5081379 C3.88193103,14.6529655 3.88606897,14.7577931 3.88606897,14.8221609 L3.88606897,15.0511264 C3.88606897,15.155954 3.88193103,15.2727356 3.87411494,15.4010115 C3.86583908,15.5302069 3.86216092,15.6469885 3.86216092,15.7513563 L3.86216092,15.9807816 C3.86216092,16.0290575 3.86583908,16.1012414 3.87411494,16.1977931 C3.88193103,16.2943448 3.88606897,16.3991724 3.88606897,16.5113563 C3.88606897,16.6244598 3.88974713,16.7288276 3.89802299,16.8253793 C3.90583908,16.921931 3.91043678,16.9945747 3.91043678,17.0428506 C3.91043678,17.1233103 3.88147126,17.235954 3.82491954,17.3807816 C3.76836782,17.5256092 3.56974713,17.5977931 3.23043678,17.5977931 C3.1977931,17.5977931 3.09618391,17.5895172 2.92652874,17.5734253 C2.75641379,17.5573333 2.66354023,17.5495172 2.64698851,17.5495172 C2.51733333,17.5334253 2.37986207,17.5214713 2.23411494,17.5131954 C2.08836782,17.5053793 1.90216092,17.5012414 1.67549425,17.5012414 C1.52974713,17.5012414 1.35595402,17.5095172 1.15365517,17.5256092 C0.950896552,17.5412414 0.776643678,17.5495172 0.631356322,17.5495172 C0.388597701,17.5495172 0.226298851,17.4892874 0.14537931,17.3683678 C0.0644597701,17.247908 0.024,17.0667586 0.024,16.8253793 L0.024,16.1131954 C0.024,15.7674483 0.0276781609,15.3973333 0.035954023,15.0028506 C0.0442298851,14.6088276 0.0483678161,14.2345747 0.0483678161,13.8805517 L0.0483678161,13.132046 L0.0483678161,12.3118161 C0.0483678161,11.9095172 0.0442298851,11.4787126 0.035954023,11.0203218 C0.0276781609,10.5614713 0.024,10.1311264 0.024,9.72882759 L0.024,8.85986207 L0.024,8.41342529 C0.024,8.19595402 0.0276781609,7.96652874 0.035954023,7.7256092 C0.0442298851,7.48422989 0.0483678161,7.2548046 0.0483678161,7.03733333 L0.0483678161,6.56698851 L0.0483678161,6.24101149 C0.0483678161,6.08836782 0.0442298851,5.92331034 0.035954023,5.74583908 C0.0276781609,5.56928736 0.024,5.40009195 0.024,5.23917241 L0.024,4.90124138 L0.024,4.64790805 C0.024,4.52698851 0.0276781609,4.39871264 0.035954023,4.26170115 C0.0442298851,4.12514943 0.0483678161,3.99595402 0.0483678161,3.87549425 L0.0483678161,3.62170115 C0.0483678161,3.5577931 0.0442298851,3.44928736 0.035954023,3.29618391 C0.0276781609,3.14354023 0.024,2.98216092 0.024,2.81342529 C0.024,2.64422989 0.019862069,2.47963218 0.012045977,2.31825287 C0.00377011494,2.1577931 9.1954023e-05,2.04514943 9.1954023e-05,1.98032184 C9.1954023e-05,1.65894253 0.00377011494,1.42951724 0.012045977,1.29250575 C0.019862069,1.15595402 0.056183908,1.02308046 0.120551724,0.894344828 C0.152735632,0.829977011 0.212965517,0.74583908 0.301701149,0.641011494 C0.389977011,0.536183908 0.514574713,0.484229885 0.675954023,0.484229885 C0.724229885,0.484229885 0.812045977,0.487908046 0.941241379,0.496183908 C1.06997701,0.50445977 1.20698851,0.508137931 1.35181609,0.508137931 C1.49664368,0.508137931 1.63687356,0.512275862 1.77388506,0.520091954 C1.91043678,0.528367816 2.00331034,0.532505747 2.05158621,0.532505747 C2.09986207,0.532505747 2.19227586,0.528367816 2.32928736,0.520091954 C2.46583908,0.512275862 2.61066667,0.508137931 2.76377011,0.508137931 C2.91641379,0.508137931 3.06537931,0.50445977 3.2102069,0.496183908 C3.35503448,0.487908046 3.45158621,0.484229885 3.49986207,0.484229885 C3.58032184,0.484229885 3.68468966,0.496183908 3.81388506,0.520091954 C3.94262069,0.54445977 4.04698851,0.629057471 4.12744828,0.773425287 C4.15963218,0.821701149 4.20009195,0.938942529 4.24836782,1.12377011 C4.29664368,1.30905747 4.32836782,1.42537931 4.34491954,1.47365517 C4.37664368,1.55457471 4.42905747,1.6994023 4.50170115,1.90813793 C4.57434483,2.11733333 4.61802299,2.26216092 4.63411494,2.34262069 C4.69848276,2.52009195 4.76698851,2.68468966 4.83963218,2.83733333 C4.91181609,2.99043678 4.97250575,3.15549425 5.02078161,3.33204598 C5.03641379,3.36468966 5.06078161,3.44101149 5.09296552,3.56147126 C5.12514943,3.6823908 5.16101149,3.81112644 5.20147126,3.94767816 C5.24147126,4.08468966 5.28193103,4.20974713 5.3223908,4.32193103 C5.3623908,4.43457471 5.38262069,4.49894253 5.38262069,4.51503448 C5.39871264,4.56331034 5.41066667,4.61572414 5.41894253,4.67181609 C5.42675862,4.72836782 5.43871264,4.78032184 5.45526437,4.8285977 L5.60009195,5.26354023 C5.63181609,5.31181609 5.66813793,5.4285977 5.7085977,5.61342529 C5.7485977,5.79871264 5.77664368,5.92331034 5.79273563,5.98721839 C5.82491954,6.10032184 5.86124138,6.16836782 5.90170115,6.19273563 C5.94170115,6.21664368 5.96974713,6.22905747 5.98583908,6.22905747 C6.0502069,6.22905747 6.12285057,6.12836782 6.20331034,5.92698851 C6.28377011,5.72606897 6.33986207,5.56928736 6.37250575,5.45664368 C6.43641379,5.19917241 6.48101149,5.03411494 6.50491954,4.96147126 C6.52928736,4.88928736 6.5656092,4.7885977 6.61388506,4.65986207 C6.66216092,4.56331034 6.72606897,4.40285057 6.80698851,4.17710345 C6.88698851,3.95181609 6.97158621,3.71457471 7.06032184,3.46491954 C7.1485977,3.21572414 7.22905747,2.97848276 7.30170115,2.7531954 C7.37388506,2.52790805 7.42629885,2.36652874 7.45848276,2.26997701 C7.49066667,2.12514943 7.52652874,1.97664368 7.56698851,1.82354023 C7.60698851,1.67089655 7.64331034,1.51411494 7.67595402,1.3531954 C7.75595402,1.11135632 7.84468966,0.906298851 7.94124138,0.737563218 C8.0377931,0.568367816 8.22262069,0.484229885 8.49664368,0.484229885 L8.82216092,0.484229885 C8.99135632,0.484229885 9.16836782,0.487908046 9.35365517,0.496183908 C9.53802299,0.50445977 9.71549425,0.508137931 9.88422989,0.508137931 L10.2584828,0.508137931 L10.4998621,0.508137931 C10.612046,0.508137931 10.7329655,0.50445977 10.8621609,0.496183908 C10.9904368,0.487908046 11.1154943,0.484229885 11.235954,0.484229885 L11.4897471,0.484229885 C11.6345747,0.484229885 11.8033103,0.512275862 11.9964138,0.568367816 C12.1895172,0.62491954 12.286069,0.813885057 12.286069,1.13572414 C12.286069,1.16790805 12.281931,1.19595402 12.2741149,1.22032184 C12.2658391,1.24422989 12.2621609,1.27273563 12.2621609,1.30491954 C12.2621609,1.38537931 12.2575632,1.52606897 12.2497471,1.72698851 C12.2414713,1.92836782 12.2336552,2.13756322 12.2258391,2.35457471 C12.2175632,2.57204598 12.2092874,2.77342529 12.2014713,2.95825287 C12.1931954,3.14354023 12.1895172,3.25986207 12.1895172,3.30813793 C12.1895172,3.37250575 12.1931954,3.49342529 12.2014713,3.67043678 C12.2092874,3.84744828 12.2138851,4.03641379 12.2138851,4.23733333 C12.2138851,4.43871264 12.2175632,4.62767816 12.2258391,4.80468966 C12.2336552,4.98216092 12.2377931,5.11043678 12.2377931,5.19089655 L12.2377931,5.60101149 C12.2377931,5.79411494 12.2414713,6.00377011 12.2497471,6.22905747 C12.2575632,6.45434483 12.2621609,6.67181609 12.2621609,6.88055172 L12.2621609,7.31503448 L12.2621609,8.25618391 C12.2621609,8.38537931 12.2575632,8.55825287 12.2497471,8.77526437 C12.2414713,8.99273563 12.2377931,9.20606897 12.2377931,9.4148046 L12.2377931,9.9702069 L12.2377931,10.235954 C12.2377931,10.3164138 12.2414713,10.4649195 12.2497471,10.6823908 C12.2575632,10.8994023 12.2621609,11.1288276 12.2621609,11.3702069 C12.2621609,11.6115862 12.2658391,11.8451494 12.2741149,12.069977 C12.281931,12.2957241 12.286069,12.4566437 12.286069,12.5531954 C12.286069,12.6336552 12.281931,12.7665287 12.2741149,12.9513563 C12.2658391,13.1366437 12.2575632,13.3334253 12.2497471,13.5426207 C12.2414713,13.7518161 12.2336552,13.9527356 12.2258391,14.1458391 C12.2175632,14.3389425 12.2138851,14.475954 12.2138851,14.5564138 L12.2138851,15.1596322 C12.2138851,15.207908 12.2217011,15.2966437 12.2377931,15.4253793 C12.2538851,15.5541149 12.2658391,15.6906667 12.2741149,15.835954 C12.281931,15.9807816 12.2897471,16.1173333 12.298023,16.246069 C12.3058391,16.3752644 12.3104368,16.4630805 12.3104368,16.5113563 C12.3104368,16.8336552 12.2621609,17.0828506 12.1656092,17.2598621 C12.0690575,17.4373333 11.8594023,17.5256092 11.538023,17.5256092 L11.2842299,17.5256092 C11.1637701,17.5256092 11.0345747,17.5214713 10.898023,17.5131954 C10.7614713,17.5053793 10.6327356,17.5012414 10.5118161,17.5012414 L10.2584828,17.5012414 C10.178023,17.5012414 10.0171034,17.5053793 9.77572414,17.5131954 C9.53434483,17.5214713 9.37342529,17.5256092 9.29296552,17.5256092 C9.06767816,17.5256092 8.89066667,17.4892874 8.76193103,17.4166437 C8.6331954,17.3444598 8.54078161,17.264 8.48422989,17.1752644 C8.42767816,17.0869885 8.39595402,16.9945747 8.38767816,16.8975632 C8.3794023,16.8010115 8.37572414,16.7288276 8.37572414,16.6805517 C8.37572414,16.6161839 8.38354023,16.4837701 8.39963218,16.2823908 C8.41572414,16.0810115 8.424,15.9407816 8.424,15.8598621 C8.44009195,15.7311264 8.44836782,15.6023908 8.44836782,15.4736552 L8.44836782,15.0874483 L8.44836782,13.784 C8.44836782,13.720092 8.45204598,13.5908966 8.46032184,13.3977931 C8.46813793,13.2046897 8.47227586,12.9996322 8.47227586,12.7821609 C8.47227586,12.5651494 8.47595402,12.360092 8.48422989,12.1669885 C8.49250575,11.9734253 8.49664368,11.8368736 8.49664368,11.7564138 C8.49664368,11.692046 8.48836782,11.5435402 8.47227586,11.309977 C8.45618391,11.0768736 8.44836782,10.9196322 8.44836782,10.8391724 C8.44836782,10.8230805 8.45204598,10.7306667 8.46032184,10.5614713 C8.46813793,10.3927356 8.47227586,10.2115862 8.47227586,10.0184828 L8.47227586,9.46308046 L8.47227586,9.14951724 L8.47227586,8.81158621 C8.47227586,8.74767816 8.44009195,8.71503448 8.37572414,8.71503448 C8.29572414,8.71503448 8.24377011,8.73526437 8.2194023,8.77526437 C8.19549425,8.81572414 8.16744828,8.90813793 8.13572414,9.05296552 C8.13572414,9.10124138 8.11963218,9.17342529 8.08744828,9.26997701 C8.05572414,9.31825287 8.03549425,9.37112644 8.02767816,9.42721839 C8.0194023,9.48377011 8.00744828,9.53572414 7.99135632,9.584 C7.99135632,9.63227586 7.97158621,9.70905747 7.93158621,9.81342529 C7.89158621,9.91825287 7.85158621,10.0350345 7.81158621,10.1633103 C7.77158621,10.2925057 7.73158621,10.4166437 7.69158621,10.5375632 C7.65158621,10.658023 7.62308046,10.7426207 7.60744828,10.7908966 C7.44744828,11.258023 7.27917241,11.6837701 7.10354023,12.069977 C6.9748046,12.327908 6.86308046,12.5771034 6.76744828,12.8184828 C6.63917241,13.075954 6.54308046,13.2571034 6.47917241,13.3614713 C6.4148046,13.4662989 6.31871264,13.5187126 6.19089655,13.5187126 C6.03089655,13.5187126 5.88698851,13.4704368 5.75871264,13.3738851 C5.63043678,13.2768736 5.51043678,13.092046 5.39871264,12.8184828 C5.35043678,12.6897471 5.30629885,12.5531954 5.26629885,12.4083678 C5.22675862,12.2635402 5.18216092,12.1265287 5.13434483,11.9977931 C5.07043678,11.8046897 4.99457471,11.6157241 4.90629885,11.4304368 C4.81802299,11.2456092 4.73434483,11.0566437 4.65434483,10.8630805 C4.59043678,10.6865287 4.53388506,10.5095172 4.48606897,10.332046 C4.4377931,10.1554943 4.38216092,9.97848276 4.31825287,9.80147126 C4.15825287,9.28652874 4.05802299,8.97664368 4.01802299,8.87181609 C3.97802299,8.76744828 3.93388506,8.71503448 3.88606897,8.71503448 C3.85388506,8.71503448 3.81756322,8.73526437 3.77756322,8.77526437 C3.73710345,8.81572414 3.71733333,8.87595402 3.71733333,8.95641379 C3.71733333,8.98905747 3.72514943,9.05710345 3.74124138,9.16147126 C3.75733333,9.26629885 3.7656092,9.3348046 3.7656092,9.36652874 C3.7656092,9.39917241 3.76101149,9.46767816 3.7531954,9.57204598 C3.74491954,9.67687356 3.74124138,9.74491954 3.74124138,9.77710345 C3.74124138,9.87365517 3.74491954,9.9702069 3.7531954,10.0667586 C3.76101149,10.1633103 3.7656092,10.252046 3.7656092,10.332046 C3.78124138,10.4451494 3.7931954,10.589977 3.80147126,10.7665287 C3.80928736,10.944 3.81756322,11.1210115 3.82583908,11.298023 C3.83365517,11.4750345 3.8377931,11.647908 3.8377931,11.8166437 L3.8377931,12.1908966 L3.8377931,13.3012414 Z" id="Fill-1" fill="#FFFFFF"></path>
            <path d="M14.5548506,1.42533333 C14.5548506,1.07131034 14.6068046,0.826252874 14.7116322,0.689241379 C14.816,0.552689655 15.0215172,0.484183908 15.3272644,0.484183908 C15.3755402,0.484183908 15.4518621,0.487862069 15.5566897,0.496137931 C15.6610575,0.504413793 15.7737011,0.508091954 15.8946207,0.508091954 C16.0150805,0.508091954 16.1318621,0.512229885 16.2445057,0.520045977 C16.3566897,0.528321839 16.4376092,0.53245977 16.4858851,0.53245977 C16.5341609,0.53245977 16.6224368,0.528321839 16.7511724,0.520045977 C16.879908,0.512229885 17.0205977,0.508091954 17.1737011,0.508091954 C17.3263448,0.508091954 17.4711724,0.504413793 17.6081839,0.496137931 C17.7447356,0.487862069 17.8376092,0.484183908 17.8858851,0.484183908 C18.0307126,0.484183908 18.1392184,0.512229885 18.2118621,0.568321839 C18.284046,0.624873563 18.3401379,0.69337931 18.3805977,0.77383908 C18.4205977,0.854298851 18.4449655,0.934758621 18.4532414,1.01475862 C18.4610575,1.09567816 18.4651954,1.15177011 18.4651954,1.18395402 C18.4651954,1.26441379 18.4610575,1.34073563 18.4532414,1.41337931 C18.4449655,1.48556322 18.4330115,1.56234483 18.4169195,1.6428046 C18.4008276,1.78763218 18.3884138,1.9365977 18.3805977,2.08924138 C18.3723218,2.24234483 18.3686437,2.39085057 18.3686437,2.53567816 L18.3686437,3.75452874 C18.3686437,4.14901149 18.3603678,4.55544828 18.3447356,4.97383908 C18.3447356,5.18303448 18.347954,5.43222989 18.3566897,5.72188506 C18.3645057,6.01154023 18.3686437,6.2611954 18.3686437,6.4703908 C18.3686437,6.50257471 18.3645057,6.56694253 18.3566897,6.66349425 C18.347954,6.76004598 18.3447356,6.86073563 18.3447356,6.96510345 C18.3447356,7.06993103 18.3401379,7.16648276 18.3323218,7.25475862 C18.324046,7.34349425 18.3203678,7.41154023 18.3203678,7.45981609 L18.3203678,7.79774713 C18.3203678,7.95866667 18.324046,8.12786207 18.3323218,8.30441379 C18.3401379,8.48188506 18.3447356,8.65475862 18.3447356,8.82349425 L18.3447356,9.17383908 C18.3447356,9.2382069 18.3401379,9.35866667 18.3323218,9.53567816 C18.324046,9.71268966 18.3203678,9.89797701 18.3203678,10.0910805 C18.3203678,10.2841839 18.3162299,10.4690115 18.3084138,10.646023 C18.3001379,10.8230345 18.2964598,10.943954 18.2964598,11.0083218 L18.2964598,11.2855632 C18.2964598,11.4225747 18.3001379,11.5715402 18.3084138,11.732 C18.3162299,11.8933793 18.3203678,12.0423448 18.3203678,12.1788966 L18.3203678,12.4565977 C18.3203678,12.5531494 18.3162299,12.7301609 18.3084138,12.9871724 C18.3001379,13.2451034 18.2918621,13.5186667 18.284046,13.8083218 C18.2757701,14.0975172 18.267954,14.3756782 18.2601379,14.6409655 C18.2518621,14.9062529 18.2481839,15.0956782 18.2481839,15.2083218 C18.2481839,15.3853333 18.2518621,15.5582069 18.2601379,15.7269425 C18.267954,15.8961379 18.272092,16.0694713 18.272092,16.246023 C18.2881839,16.2942989 18.3001379,16.3991264 18.3084138,16.5595862 C18.3162299,16.7209655 18.3203678,16.8253333 18.3203678,16.8736092 C18.3203678,16.9701609 18.284046,17.0910805 18.2118621,17.235908 C18.1392184,17.3807356 17.9824368,17.4694713 17.7410575,17.5011954 C17.6927816,17.5172874 17.5635862,17.5214253 17.3548506,17.5131494 C17.1456552,17.5053333 17.0008276,17.5011954 16.9203678,17.5011954 L16.558069,17.5011954 C16.3810575,17.5011954 16.187954,17.5053333 15.9792184,17.5131494 C15.7695632,17.5214253 15.5723218,17.5255632 15.3874943,17.5255632 L15.0137011,17.5255632 C14.724046,17.5255632 14.5548506,17.4129195 14.5065747,17.1876322 C14.4582989,16.9623448 14.433931,16.7770575 14.433931,16.6322299 L14.433931,16.583954 C14.433931,16.5034943 14.438069,16.3508506 14.4463448,16.1255632 C14.4541609,15.9002759 14.4582989,15.6630345 14.4582989,15.4133793 C14.4582989,15.1641839 14.461977,14.9269425 14.4702529,14.7011954 C14.478069,14.475908 14.4822069,14.3149885 14.4822069,14.2184368 L14.4822069,13.5908506 L14.4822069,12.8906207 L14.4822069,12.1908506 L14.4822069,11.5876322 C14.4822069,11.4749885 14.4863448,11.2777471 14.4946207,10.995908 C14.5024368,10.7149885 14.5143908,10.4129195 14.5304828,10.0910805 C14.5465747,9.76924138 14.5585287,9.46303448 14.5668046,9.17383908 C14.5746207,8.88418391 14.5792184,8.67498851 14.5792184,8.54625287 C14.5792184,8.48188506 14.5746207,8.37337931 14.5668046,8.22027586 C14.5585287,8.06763218 14.5548506,7.89843678 14.5548506,7.71314943 C14.5548506,7.52832184 14.5507126,7.35544828 14.5428966,7.19406897 C14.5346207,7.0336092 14.5304828,6.92096552 14.5304828,6.8565977 C14.5304828,6.80832184 14.5346207,6.72372414 14.5428966,6.6028046 C14.5507126,6.48234483 14.5585287,6.35774713 14.5668046,6.22901149 C14.5746207,6.10027586 14.5828966,5.97521839 14.5911724,5.85475862 C14.5989885,5.73383908 14.6031264,5.64970115 14.6031264,5.60142529 L14.6031264,5.17889655 C14.6031264,4.97797701 14.5989885,4.76464368 14.5911724,4.53889655 C14.5828966,4.31406897 14.5792184,4.09705747 14.5792184,3.8874023 L14.5792184,3.45291954 C14.5792184,3.38901149 14.5828966,3.24418391 14.5911724,3.01843678 C14.5989885,2.7936092 14.6031264,2.64050575 14.6031264,2.56004598 C14.6031264,2.51177011 14.5989885,2.43544828 14.5911724,2.33062069 C14.5828966,2.22625287 14.5792184,2.11314943 14.5792184,1.99268966 C14.5792184,1.87177011 14.5746207,1.75958621 14.5668046,1.65475862 C14.5585287,1.54993103 14.5548506,1.4736092 14.5548506,1.42533333" id="Fill-3" fill="#FFFFFF"></path>
            <g id="Group-7" transform="translate(19.310345, 0.257655)">
                <mask id="mask-3" fill="white">
                    <use xlink:href="#path-2"></use>
                </mask>
                <g id="Clip-6"></g>
                <path d="M8.47186207,5.99526437 C8.37531034,6.23664368 8.27462069,6.47434483 8.17025287,6.70744828 C8.06542529,6.94101149 7.96473563,7.17825287 7.86864368,7.41963218 C7.77209195,7.64491954 7.69531034,7.8177931 7.63875862,7.93871264 C7.5822069,8.05917241 7.54266667,8.15158621 7.51829885,8.21595402 C7.4943908,8.28032184 7.48243678,8.3285977 7.48243678,8.36078161 L7.48243678,8.45733333 C7.48243678,8.5056092 7.48565517,8.55802299 7.4943908,8.61411494 C7.5022069,8.67066667 7.52243678,8.73917241 7.55462069,8.81963218 C7.5868046,8.90009195 7.63508046,9.01227586 7.69944828,9.15710345 C7.76335632,9.30193103 7.85209195,9.49549425 7.96473563,9.73687356 C8.15783908,10.1552644 8.35921839,10.621931 8.56841379,11.1368736 C8.7776092,11.6518161 8.97025287,12.1382529 9.14772414,12.5971034 C9.32427586,13.0554943 9.47370115,13.4462989 9.59416092,13.7676782 C9.71508046,14.0895172 9.77531034,14.2587126 9.77531034,14.2748046 L10.1376092,15.2881379 C10.2015172,15.4329655 10.2617471,15.5741149 10.3182989,15.7106667 C10.3743908,15.8476782 10.4350805,15.9883678 10.4994483,16.1331954 C10.5311724,16.2141149 10.5596782,16.3106667 10.584046,16.4228506 C10.607954,16.5354943 10.619908,16.6242299 10.619908,16.6885977 C10.619908,16.9782529 10.5311724,17.1469885 10.3546207,17.1952644 C10.1771494,17.2435402 10.0327816,17.267908 9.92013793,17.267908 L8.76151724,17.267908 C8.69714943,17.267908 8.59232184,17.2715862 8.44749425,17.2798621 C8.30266667,17.2876782 8.14956322,17.2918161 7.98910345,17.2918161 C7.82818391,17.2918161 7.67554023,17.2954943 7.53071264,17.3037701 C7.38542529,17.312046 7.28887356,17.3161839 7.2405977,17.3161839 C6.93485057,17.3161839 6.73393103,17.2398621 6.63737931,17.0867586 C6.54082759,16.9341149 6.46036782,16.7607816 6.396,16.5676782 C6.37990805,16.5194023 6.34772414,16.4269885 6.29944828,16.289977 C6.25117241,16.1534253 6.19462069,16.0085977 6.13025287,15.8554943 C6.06588506,15.7028506 6.0097931,15.558023 5.96151724,15.4210115 C5.91324138,15.2849195 5.8805977,15.1837701 5.86496552,15.1194023 C5.83232184,14.9906667 5.79645977,14.8541149 5.75645977,14.7092874 C5.716,14.5644598 5.67186207,14.427908 5.62358621,14.2987126 C5.55921839,14.1377931 5.52289655,14.0251494 5.51508046,13.9607816 C5.5068046,13.8968736 5.48657471,13.775954 5.45485057,13.5989425 C5.43829885,13.5667586 5.4143908,13.4862989 5.3822069,13.3575632 C5.34956322,13.2288276 5.31783908,13.1644598 5.28565517,13.1644598 C5.26956322,13.1644598 5.25347126,13.2003218 5.23737931,13.2729655 C5.22128736,13.3451494 5.20105747,13.426069 5.17668966,13.5143448 C5.15278161,13.6026207 5.13255172,13.6830805 5.11691954,13.7557241 C5.10036782,13.827908 5.09255172,13.8725057 5.09255172,13.8881379 C5.07645977,13.9690575 5.06864368,14.0453793 5.06864368,14.118023 C5.06864368,14.1902069 5.06036782,14.2665287 5.04427586,14.3469885 C5.02818391,14.427908 5.01209195,14.500092 4.996,14.5644598 C4.97990805,14.6288276 4.95554023,14.7014713 4.92335632,14.7814713 C4.90726437,14.8297471 4.87508046,14.9506667 4.8268046,15.1433103 C4.77852874,15.3364138 4.72657471,15.5382529 4.67002299,15.7469885 C4.61347126,15.9566437 4.56151724,16.1451494 4.51324138,16.3143448 C4.46496552,16.4835402 4.4405977,16.575954 4.4405977,16.5915862 C4.40841379,16.7529655 4.35232184,16.9138851 4.27186207,17.0748046 C4.19094253,17.2357241 4.0143908,17.3161839 3.74082759,17.3161839 C3.70818391,17.3161839 3.58772414,17.3074483 3.37852874,17.2918161 C3.16933333,17.2757241 3.03232184,17.267908 2.96841379,17.267908 C2.90404598,17.267908 2.75921839,17.2596322 2.53393103,17.2435402 C2.30818391,17.227908 2.16335632,17.2196322 2.09944828,17.2196322 C2.00289655,17.2196322 1.90634483,17.2233103 1.8097931,17.2315862 C1.71324138,17.2398621 1.62450575,17.2435402 1.54450575,17.2435402 C1.51186207,17.2435402 1.45117241,17.2476782 1.36335632,17.2554943 C1.27462069,17.2637701 1.1822069,17.267908 1.08565517,17.267908 C0.989103448,17.267908 0.859908046,17.2757241 0.699448276,17.2918161 C0.618528736,17.2918161 0.510022989,17.267908 0.373471264,17.2196322 C0.23645977,17.1713563 0.168413793,17.0504368 0.168413793,16.8573333 C0.168413793,16.7285977 0.196,16.5796322 0.253011494,16.4108966 C0.309103448,16.2417011 0.361517241,16.0931954 0.409793103,15.9644598 C0.506344828,15.6908966 0.610712644,15.4251494 0.723356322,15.1676782 C0.836,14.9106667 0.948643678,14.6449195 1.06128736,14.3713563 C1.15783908,14.1295172 1.25025287,13.8844598 1.33898851,13.6348046 C1.42726437,13.3856092 1.52795402,13.140092 1.64105747,12.8987126 C1.70496552,12.7538851 1.7651954,12.6090575 1.82174713,12.4642299 C1.87783908,12.3194023 1.94634483,12.1745747 2.0268046,12.0297471 C2.07508046,11.9010115 2.12749425,11.7685977 2.18404598,11.6315862 C2.24013793,11.4950345 2.29255172,11.3538851 2.34082759,11.2090575 C2.46956322,10.8872184 2.59829885,10.5777931 2.72703448,10.2798621 C2.85577011,9.98193103 2.98404598,9.67250575 3.11324138,9.3502069 C3.14542529,9.25365517 3.18174713,9.15710345 3.22174713,9.06055172 C3.26174713,8.96445977 3.30634483,8.86790805 3.35462069,8.77135632 C3.43462069,8.59434483 3.48335632,8.48170115 3.49944828,8.43342529 C3.51508046,8.38514943 3.52335632,8.32078161 3.52335632,8.24032184 C3.52335632,8.15986207 3.50726437,8.06744828 3.47508046,7.96262069 C3.44289655,7.85825287 3.37025287,7.65273563 3.25806897,7.34698851 C3.17714943,7.15388506 3.09714943,6.96078161 3.01668966,6.76767816 C2.93577011,6.57457471 2.85577011,6.38147126 2.77531034,6.18836782 C2.74312644,6.10790805 2.69485057,5.98744828 2.63048276,5.82652874 C2.56611494,5.6656092 2.50128736,5.50055172 2.43737931,5.33135632 C2.37301149,5.16262069 2.31645977,5.01411494 2.26818391,4.88491954 C2.21990805,4.75618391 2.196,4.684 2.196,4.66790805 C2.03508046,4.24951724 1.90634483,3.91158621 1.8097931,3.65411494 C1.71324138,3.39664368 1.62450575,3.17089655 1.54450575,2.97825287 C1.46358621,2.78514943 1.38726437,2.604 1.31508046,2.4348046 C1.24243678,2.26606897 1.14956322,2.05273563 1.03737931,1.79526437 C0.972551724,1.65043678 0.892551724,1.45365517 0.796,1.204 C0.699448276,0.954804598 0.651172414,0.789747126 0.651172414,0.708827586 C0.651172414,0.467908046 0.731632184,0.326758621 0.892551724,0.286758621 C1.05301149,0.246758621 1.1822069,0.226528736 1.27875862,0.226528736 L1.47186207,0.226528736 C1.56841379,0.226528736 1.6805977,0.234804598 1.8097931,0.250436782 C1.92197701,0.250436782 2.03094253,0.254574713 2.13577011,0.262390805 C2.24013793,0.270666667 2.30818391,0.274804598 2.34082759,0.274804598 C2.38910345,0.274804598 2.48151724,0.270666667 2.61852874,0.262390805 C2.75462069,0.254574713 2.89990805,0.246758621 3.05301149,0.238482759 C3.20565517,0.230206897 3.35462069,0.222390805 3.49944828,0.214114943 C3.64427586,0.206298851 3.74864368,0.20216092 3.81347126,0.20216092 C4.1514023,0.20216092 4.37209195,0.258712644 4.47691954,0.371356322 C4.58174713,0.484 4.67370115,0.652735632 4.75462069,0.878022989 C4.7868046,1.02285057 4.83921839,1.20032184 4.9114023,1.40905747 C4.98404598,1.61825287 5.06036782,1.81135632 5.14082759,1.98836782 C5.25347126,2.24583908 5.35370115,2.51158621 5.44243678,2.78514943 C5.53071264,3.05871264 5.57531034,3.25963218 5.57531034,3.38836782 C5.57531034,3.42055172 5.58312644,3.48905747 5.59921839,3.59342529 C5.61531034,3.69825287 5.66358621,3.75066667 5.74404598,3.75066667 C5.77622989,3.75066667 5.79232184,3.69411494 5.79232184,3.58147126 C5.80841379,3.50101149 5.82450575,3.41273563 5.8405977,3.31572414 C5.85668966,3.21917241 5.87278161,3.13135632 5.88887356,3.05043678 C5.88887356,3.00216092 5.90910345,2.9056092 5.94956322,2.76078161 C5.98956322,2.61595402 6.03370115,2.45917241 6.08197701,2.28997701 C6.13025287,2.12124138 6.17852874,1.96078161 6.22726437,1.80721839 C6.27554023,1.65457471 6.30726437,1.55388506 6.32381609,1.5056092 C6.35554023,1.4256092 6.37990805,1.35296552 6.396,1.2885977 C6.41209195,1.22422989 6.42818391,1.15986207 6.44427586,1.09549425 C6.52473563,0.870206897 6.60887356,0.677103448 6.6976092,0.516183908 C6.78588506,0.355264368 6.99094253,0.274804598 7.31324138,0.274804598 C7.36151724,0.274804598 7.44197701,0.278482759 7.55462069,0.286758621 C7.66726437,0.295034483 7.78772414,0.298712644 7.91645977,0.298712644 C8.0451954,0.298712644 8.17025287,0.302850575 8.29071264,0.310666667 C8.41163218,0.318942529 8.49577011,0.32308046 8.54404598,0.32308046 L8.78588506,0.32308046 C8.89806897,0.32308046 9.02266667,0.318942529 9.15967816,0.310666667 C9.29622989,0.302850575 9.42910345,0.298712644 9.55783908,0.298712644 L9.82358621,0.298712644 C10.0005977,0.298712644 10.1734713,0.315264368 10.3426667,0.346988506 C10.5114023,0.379632184 10.596,0.491816092 10.596,0.68491954 C10.596,0.749287356 10.5555402,0.894114943 10.4750805,1.1194023 C10.3946207,1.34514943 10.3022069,1.5902069 10.1978391,1.85549425 C10.0930115,2.12124138 9.99278161,2.37871264 9.89622989,2.62790805 C9.79921839,2.87756322 9.72703448,3.05043678 9.67875862,3.14698851 C9.5822069,3.35618391 9.48933333,3.56170115 9.40105747,3.76262069 C9.31278161,3.964 9.22818391,4.16905747 9.14772414,4.3777931 C9.01852874,4.65181609 8.90634483,4.92124138 8.8097931,5.18652874 C8.71324138,5.45227586 8.6005977,5.72170115 8.47186207,5.99526437" id="Fill-5" fill="#FFFFFF" mask="url(#mask-3)"></path>
            </g>
            <path d="M18.5742529,26.4254713 C18.5098851,26.4415632 18.4533333,26.453977 18.4055172,26.4617931 C18.3567816,26.470069 18.3002299,26.4737471 18.2367816,26.4737471 C18.1402299,26.4737471 18.0271264,26.4457011 17.8983908,26.3891494 C17.7696552,26.3330575 17.6813793,26.2645517 17.6331034,26.184092 C17.6331034,26.168 17.6285057,26.1036322 17.6211494,25.9909885 C17.6124138,25.8788046 17.6050575,25.7537471 17.5967816,25.6167356 C17.588046,25.4801839 17.5806897,25.3597241 17.5724138,25.2548966 C17.5645977,25.1505287 17.5604598,25.082023 17.5604598,25.0493793 C17.5604598,24.9854713 17.5682759,24.8443218 17.5848276,24.6268506 C17.6004598,24.4098391 17.6087356,24.2613333 17.6087356,24.1804138 C17.6087356,24.1165057 17.6050575,23.9753563 17.5967816,23.7583448 C17.588046,23.5408736 17.5848276,23.3923678 17.5848276,23.311908 C17.5848276,23.2148966 17.5967816,23.0985747 17.6211494,22.9615632 C17.6450575,22.8250115 17.7213793,22.7165057 17.8501149,22.6355862 C17.9466667,22.5716782 18.1071264,22.5312184 18.3333333,22.5151264 C18.5581609,22.4990345 18.7351724,22.4907586 18.863908,22.4907586 C18.9282759,22.4907586 19.0689655,22.4948966 19.2864368,22.5031724 C19.5034483,22.5114483 19.6524138,22.5151264 19.7333333,22.5151264 L19.925977,22.5151264 C20.0225287,22.5151264 20.1268966,22.5114483 20.24,22.5031724 C20.3521839,22.4948966 20.4570115,22.4870805 20.554023,22.4788046 C20.6505747,22.4709885 20.7227586,22.4668506 20.7705747,22.4668506 L22.0018391,22.4668506 C22.114023,22.4668506 22.2271264,22.4709885 22.3397701,22.4788046 C22.4524138,22.4870805 22.5728736,22.4907586 22.702069,22.4907586 L22.8947126,22.4907586 C22.9912644,22.4907586 23.0556322,22.4829425 23.0878161,22.4668506 L24.777931,22.4668506 C25.0514943,22.4668506 25.2124138,22.5914483 25.2606897,22.8411034 C25.3085057,23.0907586 25.3411494,23.351908 25.3572414,23.6254713 L25.3572414,23.9873103 C25.3572414,24.1647816 25.3609195,24.3496092 25.3691954,24.5427126 C25.3770115,24.7358161 25.3816092,24.9252414 25.3816092,25.110069 L25.3816092,25.4838621 C25.3816092,26.128 25.1397701,26.4493793 24.6570115,26.4493793 C24.6243678,26.4493793 24.5365517,26.4415632 24.3912644,26.4254713 C24.2468966,26.4093793 24.1581609,26.4011034 24.125977,26.4011034 C23.8041379,26.4011034 23.5908046,26.4296092 23.4864368,26.4857011 C23.3816092,26.5422529 23.3296552,26.6990345 23.3296552,26.9565057 L23.3296552,27.4029425 C23.3296552,27.5882299 23.3374713,27.7450115 23.354023,27.8737471 C23.354023,27.922023 23.3572414,28.0268506 23.365977,28.1877701 C23.3733333,28.3486897 23.3816092,28.5174253 23.3898851,28.6944368 C23.3977011,28.8714483 23.405977,29.0365057 23.4137931,29.1891494 C23.422069,29.3422529 23.4262069,29.4512184 23.4262069,29.5151264 C23.4262069,29.5794943 23.422069,29.6921379 23.4137931,29.8530575 C23.405977,30.013977 23.4018391,30.1873103 23.4018391,30.3716782 C23.4018391,30.5569655 23.3977011,30.7302989 23.3898851,30.8907586 C23.3816092,31.0521379 23.3774713,31.1647816 23.3774713,31.2286897 C23.3774713,31.3252414 23.3816092,31.4907586 23.3898851,31.7234023 C23.3977011,31.9569655 23.405977,32.2107586 23.4137931,32.4838621 C23.422069,32.7578851 23.4298851,33.0190345 23.4381609,33.2686897 C23.445977,33.5183448 23.4501149,33.6907586 23.4501149,33.7873103 C23.4501149,33.8838621 23.445977,34.0493793 23.4381609,34.282023 C23.4298851,34.5155862 23.4262069,34.7652414 23.4262069,35.0305287 C23.4262069,35.2958161 23.422069,35.5496092 23.4137931,35.7909885 C23.405977,36.0323678 23.4018391,36.2011034 23.4018391,36.2976552 C23.4018391,36.5716782 23.405977,36.8374253 23.4137931,37.0944368 C23.422069,37.351908 23.4262069,37.6176552 23.4262069,37.8907586 C23.4262069,37.9555862 23.4298851,38.0962759 23.4381609,38.3132874 C23.445977,38.5307586 23.4501149,38.6714483 23.4501149,38.7358161 C23.4501149,38.784092 23.445977,38.8562759 23.4381609,38.9532874 C23.4298851,39.0498391 23.4018391,39.1422529 23.354023,39.2305287 C23.3052874,39.3192644 23.2331034,39.3997241 23.1365517,39.471908 C23.04,39.5445517 22.9029885,39.5804138 22.725977,39.5804138 C22.6616092,39.5804138 22.6013793,39.5767356 22.5452874,39.5684598 C22.4887356,39.5601839 22.4202299,39.5482299 22.3397701,39.5321379 C22.2105747,39.5165057 22.0942529,39.5082299 21.9898851,39.5082299 L21.64,39.5082299 L21.3503448,39.5082299 C21.2855172,39.5082299 21.1489655,39.5123678 20.9402299,39.5201839 C20.7301149,39.5284598 20.6018391,39.539954 20.554023,39.5565057 C20.4731034,39.5565057 20.4004598,39.5643218 20.3365517,39.5804138 C20.2717241,39.5965057 20.1995402,39.6047816 20.1190805,39.6047816 C19.9581609,39.6047816 19.8174713,39.5482299 19.6965517,39.4355862 C19.576092,39.3234023 19.5158621,39.1942069 19.5158621,39.0498391 C19.5158621,38.9693793 19.5232184,38.9128276 19.5402299,38.8806437 C19.571954,38.7197241 19.588046,38.5666207 19.588046,38.4217931 C19.588046,38.2769655 19.5963218,38.059954 19.6124138,37.7702989 L19.6124138,36.7923678 C19.6124138,36.4305287 19.6082759,36.0608736 19.6,35.6824828 C19.5921839,35.3045517 19.588046,34.933977 19.588046,34.5721379 L19.588046,33.5942069 L19.588046,33.1716782 C19.588046,32.9707586 19.583908,32.7578851 19.576092,32.5321379 C19.5678161,32.3068506 19.5636782,32.093977 19.5636782,31.8925977 L19.5636782,31.470069 C19.5636782,31.1965057 19.5678161,30.9192644 19.576092,30.6374253 C19.583908,30.356046 19.588046,30.0783448 19.588046,29.8047816 L19.588046,28.0424828 C19.588046,27.9142069 19.5921839,27.7491494 19.6,27.5477701 C19.6082759,27.3468506 19.6124138,27.1822529 19.6124138,27.0530575 C19.6124138,26.7312184 19.5402299,26.545931 19.3949425,26.4976552 C19.2501149,26.4493793 19.0891954,26.4254713 18.9121839,26.4254713 L18.5742529,26.4254713 Z" id="Fill-8" fill="#FFFFFF"></path>
            <path d="M27.8433103,34.583954 C27.7784828,34.246023 27.7104368,33.8722299 27.6382529,33.4616552 C27.5656092,33.0515402 27.4929655,32.6290115 27.4207816,32.1945287 C27.3481379,31.760046 27.2796322,31.3338391 27.2157241,30.9149885 C27.1508966,30.4965977 27.0865287,30.1186667 27.0226207,29.7807356 C26.926069,29.2009655 26.8129655,28.6262529 26.6842299,28.0547586 C26.5554943,27.4837241 26.4428506,26.908092 26.3462989,26.3287816 C26.3302069,26.2487816 26.3017011,26.0556782 26.2621609,25.7494713 C26.2217011,25.4441839 26.1812414,25.1182069 26.1412414,24.772 C26.1012414,24.4262529 26.0649195,24.1044138 26.0327356,23.8064828 C26.0005517,23.5090115 25.9844598,23.3356782 25.9844598,23.2874023 C25.9844598,23.2552184 25.9885977,23.2032644 25.9964138,23.1306207 C26.0046897,23.0584368 26.0244598,22.9821149 26.0566437,22.9011954 C26.0892874,22.8211954 26.1412414,22.7485517 26.2138851,22.6841839 C26.286069,22.6198161 26.3862989,22.5876322 26.5154943,22.5876322 C26.612046,22.5876322 26.6925057,22.595908 26.7568736,22.6115402 C26.8856092,22.628092 27.0138851,22.635908 27.1430805,22.635908 L27.5292874,22.635908 C27.8028506,22.635908 28.007908,22.6317701 28.1449195,22.6234943 C28.2814713,22.6156782 28.3738851,22.6115402 28.4226207,22.6115402 C28.5030805,22.595908 28.5913563,22.5834943 28.687908,22.5752184 C28.7844598,22.5674023 28.8727356,22.5632644 28.9531954,22.5632644 C29.3554943,22.5632644 29.6134253,22.6317701 29.726069,22.7683218 C29.8382529,22.9053333 29.9104368,23.1508506 29.9430805,23.5048736 C29.9591724,23.7301609 29.9752644,23.9113103 29.9913563,24.0478621 C30.0069885,24.1848736 30.0235402,24.3218851 30.0396322,24.4584368 C30.0557241,24.5949885 30.0754943,24.7398161 30.0998621,24.8924598 C30.1242299,25.0455632 30.160092,25.2510805 30.2088276,25.508092 C30.3210115,26.120046 30.4295172,26.7356782 30.5348046,27.3545287 C30.6387126,27.9742989 30.7398621,28.589931 30.8364138,29.2009655 C30.8842299,29.5071724 30.9288276,29.8087816 30.9688276,30.1062529 C31.0088276,30.4046437 31.0451494,30.714069 31.0773333,31.035908 C31.0934253,31.1646437 31.1058391,31.2814253 31.1136552,31.3857931 C31.121931,31.4906207 31.1417011,31.5991264 31.1738851,31.7117701 C31.189977,31.7922299 31.1982529,31.8446437 31.1982529,31.8685517 L31.1982529,32.0253333 C31.1982529,32.1218851 31.2304368,32.1701609 31.2948046,32.1701609 C31.3913563,32.1701609 31.4474483,32.1421149 31.464,32.0855632 C31.4796322,32.0294713 31.487908,31.9614253 31.487908,31.8805057 C31.487908,31.8648736 31.527908,31.6874023 31.6083678,31.3494713 C31.6888276,31.0115402 31.7734253,30.6336092 31.8621609,30.2152184 C31.9504368,29.7968276 32.0345747,29.4028046 32.1154943,29.0322299 C32.195954,28.6625747 32.2364138,28.4529195 32.2364138,28.4046437 C32.1876782,28.1149885 32.1357241,27.8216552 32.0791724,27.5237241 C32.0226207,27.2262529 31.9784828,26.9324598 31.9467586,26.6428046 C31.9141149,26.4014253 31.881931,26.160046 31.8502069,25.9186667 C31.8175632,25.6772874 31.7853793,25.4441839 31.7536552,25.2184368 C31.7375632,25.1384368 31.7131954,24.9811954 31.6810115,24.7476322 C31.6483678,24.5149885 31.612046,24.2772874 31.572046,24.035908 C31.532046,23.7945287 31.4957241,23.5770575 31.464,23.383954 C31.4313563,23.1908506 31.4157241,23.0786667 31.4157241,23.046023 C31.4157241,22.9011954 31.4718161,22.7890115 31.5844598,22.708092 C31.6971034,22.628092 31.8175632,22.5876322 31.9467586,22.5876322 C32.0750345,22.5876322 32.1715862,22.595908 32.2364138,22.6115402 C32.3485977,22.628092 32.4571034,22.6395862 32.5623908,22.6478621 C32.6662989,22.6561379 32.7752644,22.6598161 32.887908,22.6598161 C32.967908,22.6598161 33.0929655,22.6561379 33.2621609,22.6478621 C33.4308966,22.6395862 33.612046,22.628092 33.8051494,22.6115402 C33.9982529,22.6115402 34.1830805,22.6078621 34.3605517,22.5995862 C34.5375632,22.5917701 34.6658391,22.5876322 34.7467586,22.5876322 C35.052046,22.5876322 35.2571034,22.652 35.3623908,22.7807356 C35.4662989,22.9094713 35.5348046,23.1186667 35.5674483,23.4083218 C35.6152644,23.8428046 35.6796322,24.4184368 35.7605517,25.1338391 C35.8410115,25.8501609 35.9210115,26.5545287 36.0014713,27.246023 C36.081931,27.937977 36.1545747,28.5536092 36.2189425,29.0929195 C36.2828506,29.6317701 36.3154943,29.9494713 36.3154943,30.046023 C36.3476782,30.2391264 36.3715862,30.4768276 36.3881379,30.7582069 C36.4037701,31.040046 36.4281379,31.2772874 36.4603218,31.4703908 C36.475954,31.5508506 36.4846897,31.6069425 36.4846897,31.6391264 L36.4846897,31.8805057 C36.4846897,31.9770575 36.5003218,32.057977 36.5325057,32.1218851 C36.5651494,32.1867126 36.5968736,32.2184368 36.6290575,32.2184368 C36.6617011,32.2184368 36.6814713,32.1945287 36.6897471,32.1462529 C36.6975632,32.097977 36.7095172,32.057977 36.7256092,32.0253333 C36.7417011,31.9614253 36.7656092,31.7963678 36.7982529,31.5306207 C36.8304368,31.2648736 36.8584828,30.9798161 36.8828506,30.6736092 C36.9067586,30.3683218 36.9311264,30.0745287 36.9550345,29.7926897 C36.9794023,29.5113103 36.9991724,29.314069 37.0152644,29.2009655 C37.047908,28.9117701 37.087908,28.6262529 37.1361839,28.3444138 C37.1844598,28.0630345 37.2244598,27.7770575 37.2571034,27.4874023 C37.2571034,27.4234943 37.2649195,27.2942989 37.2810115,27.1011954 C37.2971034,26.908092 37.3131954,26.7071724 37.3292874,26.497977 C37.3449195,26.2887816 37.3614713,26.0915402 37.3775632,25.9062529 C37.3931954,25.7218851 37.4097471,25.5890115 37.4258391,25.508092 C37.458023,25.2832644 37.4865287,25.0014253 37.509977,24.6634943 C37.5343448,24.3255632 37.5545747,23.9632644 37.5706667,23.5770575 C37.5706667,23.400046 37.5987126,23.2069425 37.6552644,22.9977471 C37.7113563,22.7890115 37.9003218,22.6841839 38.2221609,22.6841839 L38.487908,22.6841839 C38.7292874,22.7163678 39.0069885,22.7324598 39.3205517,22.7324598 L40.1775632,22.7324598 C40.2258391,22.7324598 40.3504368,22.7283218 40.5518161,22.720046 C40.7527356,22.7122299 40.8934253,22.708092 40.9743448,22.708092 C41.2796322,22.708092 41.4566437,22.7807356 41.5053793,22.9255632 C41.5531954,23.0703908 41.5775632,23.1908506 41.5775632,23.2874023 C41.5775632,23.3356782 41.5692874,23.4202759 41.5531954,23.5407356 C41.5371034,23.6616552 41.5210115,23.7821149 41.5053793,23.9030345 C41.4892874,24.0234943 41.4649195,24.1890115 41.4327356,24.3977471 C41.400092,24.6069425 41.3642299,24.8124598 41.3237701,25.0133793 C41.2837701,25.2147586 41.2474483,25.4115402 41.2157241,25.6046437 C41.1830805,25.7655632 41.1591724,25.9186667 41.1430805,26.0634943 C41.1269885,26.2083218 41.1104368,26.3531494 41.0948046,26.497977 C41.0626207,26.7232644 41.0382529,26.9122299 41.0221609,27.0648736 C41.006069,27.217977 40.9862989,27.3908506 40.961931,27.583954 C40.9375632,27.7770575 40.9017011,28.0064828 40.8534253,28.2717701 C40.8051494,28.5375172 40.7407816,28.8956782 40.6603218,29.3462529 C40.612046,29.635908 40.5637701,29.9297011 40.5154943,30.2271724 C40.4672184,30.5251034 40.4189425,30.8184368 40.3706667,31.108092 C40.3223908,31.3821149 40.2741149,31.6552184 40.2258391,31.9287816 C40.1775632,32.2028046 40.1131954,32.4763678 40.0327356,32.7494713 C40.0166437,32.8303908 40.000092,32.9025747 39.9844598,32.9669425 C39.9683678,33.0313103 39.9522759,33.1034943 39.9361839,33.183954 C39.887908,33.4097011 39.8396322,33.6588966 39.7913563,33.9324598 C39.7430805,34.206023 39.6948046,34.4874023 39.6465287,34.7770575 C39.5982529,35.0667126 39.549977,35.3485517 39.5017011,35.6221149 C39.4534253,35.8956782 39.4051494,36.1370575 39.3568736,36.3462529 C39.3246897,36.4749885 39.292046,36.6037241 39.2603218,36.7324598 C39.2281379,36.8611954 39.1954943,36.989931 39.1637701,37.1186667 C39.1315862,37.2634943 39.1035402,37.4041839 39.0791724,37.5411954 C39.0552644,37.6777471 39.0267586,37.8184368 38.9950345,37.9632644 C38.9462989,38.2855632 38.9062989,38.5545287 38.8741149,38.772 C38.841931,38.9894713 38.7973333,39.1582069 38.7412414,39.2786667 C38.6846897,39.3995862 38.6083678,39.4841839 38.5118161,39.5324598 C38.4152644,39.5807356 38.2865287,39.6046437 38.1256092,39.6046437 C38.0777931,39.6046437 37.9931954,39.6005057 37.8722759,39.5926897 C37.7518161,39.5844138 37.6267586,39.5724598 37.4984828,39.5563678 C37.3536552,39.5563678 37.2207816,39.5522299 37.0998621,39.5444138 C36.9794023,39.5361379 36.8948046,39.5324598 36.8465287,39.5324598 C36.7817011,39.5324598 36.6814713,39.5361379 36.5449195,39.5444138 C36.407908,39.5522299 36.2589425,39.5563678 36.098023,39.5563678 C35.9371034,39.5724598 35.7922759,39.5844138 35.664,39.5926897 C35.5348046,39.6005057 35.4382529,39.6046437 35.3743448,39.6046437 C35.1003218,39.6046437 34.9233103,39.5444138 34.8433103,39.4234943 C34.7623908,39.3030345 34.7062989,39.1862529 34.6741149,39.0736092 C34.6414713,38.9614253 34.6175632,38.8405057 34.6014713,38.7117701 C34.5853793,38.5830345 34.5449195,38.3094713 34.4814713,37.8910805 C34.3844598,37.2634943 34.264,36.668092 34.1187126,36.1048736 C34.0382529,35.7830345 33.9656092,35.4814253 33.9017011,35.1995862 C33.8373333,34.9182069 33.8051494,34.7370575 33.8051494,34.6565977 C33.7890575,34.4795862 33.7646897,34.3908506 33.7329655,34.3908506 C33.652046,34.3908506 33.607908,34.4234943 33.600092,34.4874023 C33.5918161,34.5522299 33.5876782,34.6083218 33.5876782,34.6565977 C33.5072184,35.1554483 33.4433103,35.5536092 33.3945747,35.8510805 C33.3467586,36.1490115 33.298023,36.4345287 33.2502069,36.708092 C33.2014713,36.9821149 33.1692874,37.1508506 33.1536552,37.2152184 C33.1375632,37.3278621 33.1251494,37.4405057 33.1173333,37.5531494 C33.1090575,37.6657931 33.0971034,37.7784368 33.0810115,37.8910805 C33.0483678,38.0198161 33.0244598,38.1526897 33.0083678,38.2892414 C32.9922759,38.4262529 32.967908,38.5669425 32.9361839,38.7117701 C32.904,38.8887816 32.852046,39.0777471 32.7789425,39.2786667 C32.7067586,39.480046 32.526069,39.5807356 32.2364138,39.5807356 L32.0911264,39.5807356 C31.898023,39.548092 31.7449195,39.5324598 31.6327356,39.5324598 L31.126069,39.5324598 L30.4617011,39.5324598 C30.1485977,39.5324598 29.8787126,39.548092 29.6538851,39.5807356 C29.6051494,39.5807356 29.5568736,39.5844138 29.5085977,39.5926897 C29.4603218,39.6005057 29.4203218,39.6046437 29.3876782,39.6046437 C29.1141149,39.6046437 28.9371034,39.5246437 28.8566437,39.3632644 C28.7761839,39.2028046 28.720092,39.0818851 28.687908,39.0014253 C28.6557241,38.8726897 28.6230805,38.6676322 28.5913563,38.3857931 C28.5591724,38.1044138 28.5265287,37.8910805 28.4948046,37.7462529 C28.4787126,37.6336092 28.4382529,37.4285517 28.3738851,37.1306207 C28.309977,36.8331494 28.2414713,36.5149885 28.1688276,36.1770575 C28.0966437,35.8391264 28.0276782,35.5218851 27.9637701,35.223954 C27.8994023,34.926023 27.8589425,34.7131494 27.8433103,34.583954" id="Fill-10" fill="#FFFFFF"></path>
            <path d="M42.7117241,23.4322759 C42.7117241,23.0782529 42.7636782,22.8331954 42.8689655,22.6961839 C42.9728736,22.5596322 43.1783908,22.4911264 43.4845977,22.4911264 C43.5324138,22.4911264 43.6087356,22.4948046 43.7135632,22.5030805 C43.817931,22.5113563 43.9305747,22.5150345 44.0514943,22.5150345 C44.1724138,22.5150345 44.2887356,22.5191724 44.4013793,22.5269885 C44.514023,22.5352644 44.5949425,22.5394023 44.6427586,22.5394023 C44.6914943,22.5394023 44.7793103,22.5352644 44.908046,22.5269885 C45.0372414,22.5191724 45.1774713,22.5150345 45.3305747,22.5150345 C45.4832184,22.5150345 45.6285057,22.5113563 45.7655172,22.5030805 C45.9016092,22.4948046 45.9949425,22.4911264 46.0427586,22.4911264 C46.188046,22.4911264 46.2965517,22.5191724 46.3687356,22.5752644 C46.4409195,22.6318161 46.4970115,22.7003218 46.5374713,22.7807816 C46.5774713,22.8612414 46.6018391,22.9417011 46.6101149,23.0217011 C46.617931,23.1026207 46.622069,23.1587126 46.622069,23.1908966 C46.622069,23.2713563 46.617931,23.3476782 46.6101149,23.4203218 C46.6018391,23.4925057 46.5898851,23.5692874 46.5737931,23.6497471 C46.5577011,23.7945747 46.5457471,23.9435402 46.5374713,24.0961839 C46.5296552,24.2492874 46.5255172,24.3977931 46.5255172,24.5426207 L46.5255172,25.7614713 C46.5255172,26.155954 46.5172414,26.5623908 46.5016092,26.9807816 C46.5016092,27.189977 46.5052874,27.4391724 46.5135632,27.7288276 C46.5213793,28.0184828 46.5255172,28.2681379 46.5255172,28.4773333 C46.5255172,28.5095172 46.5213793,28.5738851 46.5135632,28.6704368 C46.5052874,28.7669885 46.5016092,28.8676782 46.5016092,28.972046 C46.5016092,29.0768736 46.4970115,29.1734253 46.4896552,29.2617011 C46.4809195,29.3504368 46.4772414,29.4184828 46.4772414,29.4667586 L46.4772414,29.8046897 C46.4772414,29.9656092 46.4809195,30.1348046 46.4896552,30.3113563 C46.4970115,30.4888276 46.5016092,30.6617011 46.5016092,30.8304368 L46.5016092,31.1807816 C46.5016092,31.2451494 46.4970115,31.3656092 46.4896552,31.5426207 C46.4809195,31.7196322 46.4772414,31.9049195 46.4772414,32.098023 C46.4772414,32.2911264 46.4735632,32.475954 46.4652874,32.6529655 C46.4570115,32.829977 46.4533333,32.9508966 46.4533333,33.0152644 L46.4533333,33.2925057 C46.4533333,33.4295172 46.4570115,33.5784828 46.4652874,33.7389425 C46.4735632,33.9003218 46.4772414,34.0492874 46.4772414,34.1858391 L46.4772414,34.4635402 C46.4772414,34.560092 46.4735632,34.7371034 46.4652874,34.9941149 C46.4570115,35.252046 46.4491954,35.5256092 46.4409195,35.8152644 C46.4331034,36.1044598 46.4248276,36.3826207 46.4170115,36.647908 C46.4087356,36.9131954 46.4050575,37.1026207 46.4050575,37.2152644 C46.4050575,37.3922759 46.4087356,37.5651494 46.4170115,37.7338851 C46.4248276,37.9030805 46.4289655,38.0764138 46.4289655,38.2529655 C46.4450575,38.3012414 46.4570115,38.406069 46.4652874,38.5665287 C46.4735632,38.727908 46.4772414,38.8322759 46.4772414,38.8805517 C46.4772414,38.9771034 46.4409195,39.098023 46.3687356,39.2428506 C46.2965517,39.3876782 46.1393103,39.4764138 45.8983908,39.5081379 C45.8496552,39.5242299 45.7209195,39.5283678 45.5117241,39.520092 C45.3025287,39.5122759 45.1577011,39.5081379 45.0777011,39.5081379 L44.7149425,39.5081379 C44.5383908,39.5081379 44.3448276,39.5122759 44.136092,39.520092 C43.9268966,39.5283678 43.7296552,39.5325057 43.5448276,39.5325057 L43.1705747,39.5325057 C42.8809195,39.5325057 42.7117241,39.4198621 42.663908,39.1945747 C42.6151724,38.9692874 42.5908046,38.784 42.5908046,38.6391724 L42.5908046,38.5908966 C42.5908046,38.5104368 42.5949425,38.3577931 42.6032184,38.1325057 C42.6110345,37.9072184 42.6151724,37.669977 42.6151724,37.4203218 C42.6151724,37.1711264 42.6193103,36.9338851 42.6271264,36.7081379 C42.6354023,36.4828506 42.6395402,36.321931 42.6395402,36.2253793 L42.6395402,35.5977931 L42.6395402,34.8975632 L42.6395402,34.1977931 L42.6395402,33.5945747 C42.6395402,33.481931 42.6432184,33.2846897 42.6514943,33.0028506 C42.6593103,32.721931 42.6712644,32.4198621 42.6873563,32.098023 C42.7034483,31.7761839 42.7158621,31.469977 42.7236782,31.1807816 C42.731954,30.8911264 42.736092,30.681931 42.736092,30.5531954 C42.736092,30.4888276 42.731954,30.3803218 42.7236782,30.2272184 C42.7158621,30.0745747 42.7117241,29.9053793 42.7117241,29.720092 C42.7117241,29.5352644 42.7075862,29.3623908 42.6997701,29.2010115 C42.6914943,29.0405517 42.6873563,28.927908 42.6873563,28.8635402 C42.6873563,28.8152644 42.6914943,28.7306667 42.6997701,28.6097471 C42.7075862,28.4892874 42.7158621,28.3646897 42.7236782,28.235954 C42.731954,28.1072184 42.7397701,27.9821609 42.748046,27.8617011 C42.7563218,27.7407816 42.76,27.6566437 42.76,27.6083678 L42.76,27.1858391 C42.76,26.9849195 42.7563218,26.7715862 42.748046,26.5458391 C42.7397701,26.3210115 42.736092,26.104 42.736092,25.8943448 L42.736092,25.4598621 C42.736092,25.395954 42.7397701,25.2511264 42.748046,25.0253793 C42.7563218,24.8005517 42.76,24.6474483 42.76,24.5669885 C42.76,24.5187126 42.7563218,24.4423908 42.748046,24.3375632 C42.7397701,24.2331954 42.736092,24.120092 42.736092,23.9996322 C42.736092,23.8787126 42.731954,23.7665287 42.7236782,23.6617011 C42.7158621,23.5568736 42.7117241,23.4805517 42.7117241,23.4322759" id="Fill-12" fill="#FFFFFF"></path>
            <path d="M47.9735172,37.3358161 C47.9735172,37.2714483 47.9693793,37.1468506 47.962023,36.9615632 C47.9532874,36.7767356 47.9496092,36.6521379 47.9496092,36.5877701 C47.9496092,36.5555862 47.9574253,36.4668506 47.9735172,36.322023 C47.9896092,36.1771954 47.9978851,36.0806437 47.9978851,36.0323678 C48.0135172,35.9358161 48.0217931,35.8434023 48.0217931,35.7546667 C48.0217931,35.6663908 48.0378851,35.5822529 48.070069,35.5013333 C48.1183448,35.4208736 48.2309885,35.3325977 48.408,35.2355862 C48.5850115,35.1390345 48.722023,35.0907586 48.8185747,35.0907586 C48.8829425,35.0907586 48.9353563,35.1031724 48.9753563,35.1270805 C49.0153563,35.1514483 49.099954,35.2038621 49.2286897,35.2838621 C49.2930575,35.3165057 49.3532874,35.344092 49.4098391,35.3684598 C49.465931,35.3923678 49.5266207,35.4208736 49.5909885,35.4530575 C49.784092,35.5496092 49.9808736,35.6305287 50.1822529,35.6944368 C50.3831724,35.7588046 50.5965057,35.7909885 50.8217931,35.7909885 C51.1114483,35.7909885 51.3408736,35.7348966 51.5096092,35.6217931 C51.6792644,35.5096092 51.8034023,35.3845517 51.8843218,35.2475402 C51.9643218,35.1114483 52.0125977,34.9785747 52.0286897,34.8493793 C52.0443218,34.7211034 52.0530575,34.6406437 52.0530575,34.608 C52.0530575,34.3188046 51.9601839,34.0613333 51.7758161,33.8355862 C51.590069,33.6102989 51.3289195,33.3371954 50.9905287,33.0153563 C50.9105287,32.9348966 50.830069,32.8544368 50.7496092,32.7735172 C50.6686897,32.6935172 50.5882299,32.6130575 50.5082299,32.5321379 C50.3955862,32.419954 50.2948966,32.3068506 50.2061609,32.1942069 C50.1178851,32.082023 50.0332874,31.9615632 49.9532874,31.8323678 C49.8406437,31.7036322 49.7316782,31.5873103 49.6273103,31.4824828 C49.522023,31.3781149 49.4217931,31.2613333 49.3252414,31.1321379 C49.1482299,30.9234023 49.0194943,30.745931 48.9394943,30.6015632 C48.8585747,30.4562759 48.762023,30.2714483 48.6498391,30.0461609 C48.5532874,29.8530575 48.4604138,29.664092 48.3716782,29.4788046 C48.2834023,29.293977 48.2070805,29.0925977 48.1427126,28.8755862 C48.0783448,28.6581149 48.0254713,28.4130575 47.9854713,28.1394943 C47.9450115,27.865931 47.9257011,27.544092 47.9257011,27.1735172 C47.9257011,26.7716782 47.9376552,26.4296092 47.962023,26.1477701 C47.9854713,25.8663908 48.0217931,25.6208736 48.070069,25.4116782 C48.1183448,25.2024828 48.1707586,25.0254713 48.2273103,24.8806437 C48.2834023,24.7358161 48.3514483,24.5992644 48.4323678,24.4705287 C48.4806437,24.3578851 48.5569655,24.2328276 48.6617931,24.0962759 C48.7661609,23.9597241 48.8746667,23.8268506 48.9873103,23.6976552 C49.099954,23.5693793 49.1965057,23.4604138 49.2769655,23.3716782 C49.3574253,23.2838621 49.4057011,23.2314483 49.4217931,23.2148966 C49.5827126,23.0866207 49.9486897,22.9132874 50.5201839,22.6962759 C51.0912184,22.4788046 51.8116782,22.3702989 52.6806437,22.3702989 C52.7928276,22.3702989 52.945931,22.3744368 53.1390345,22.3822529 C53.3321379,22.3905287 53.5293793,22.3983448 53.7302989,22.4066207 C53.9316782,22.4148966 54.1247816,22.4346667 54.3096092,22.4668506 C54.4948966,22.4990345 54.6277701,22.5390345 54.7077701,22.5873103 C54.8208736,22.6521379 54.9050115,22.7201839 54.9615632,22.7928276 C55.0176552,22.8650115 55.0581149,22.9657011 55.0824828,23.0944368 C55.1063908,23.2231724 55.1224828,23.384092 55.1302989,23.5771954 C55.1385747,23.7702989 55.1427126,24.019954 55.1427126,24.3252414 L55.1427126,25.5082299 C55.1427126,25.5565057 55.1385747,25.6328276 55.1302989,25.7371954 C55.1224828,25.842023 55.0861609,25.9348966 55.0217931,26.0148966 C54.9413333,26.128 54.8245517,26.2245517 54.671908,26.3045517 C54.5188046,26.3854713 54.385931,26.4254713 54.2737471,26.4254713 C54.2093793,26.4254713 54.1528276,26.4171954 54.1045517,26.4011034 C54.0562759,26.3854713 53.968,26.3450115 53.8392644,26.2806437 C53.7105287,26.2162759 53.5496092,26.1597241 53.3565057,26.1114483 C53.1634023,26.0631724 52.9542069,26.0392644 52.7289195,26.0392644 C52.0047816,26.0392644 51.6424828,26.3611034 51.6424828,27.0047816 C51.6424828,27.2305287 51.6824828,27.4070805 51.7634023,27.5358161 C51.8438621,27.6645517 51.9721379,27.8176552 52.1496092,27.9942069 C52.230069,28.0751264 52.3142069,28.1634023 52.4029425,28.259954 C52.4912184,28.3565057 52.5758161,28.4452414 52.6567356,28.5252414 C52.6884598,28.5578851 52.7445517,28.6181149 52.8254713,28.7063908 C52.905931,28.7951264 52.9942069,28.8958161 53.0912184,29.008 C53.1877701,29.1211034 53.2797241,29.2254713 53.3684598,29.322023 C53.4567356,29.4185747 53.5252414,29.4829425 53.573977,29.5151264 C53.7344368,29.659954 53.8636322,29.7767356 53.9601839,29.8650115 C54.0562759,29.9537471 54.1445517,30.0378851 54.2254713,30.1183448 C54.3054713,30.1992644 54.3822529,30.2958161 54.4548966,30.408 C54.5270805,30.5211034 54.6277701,30.6581149 54.7565057,30.8185747 C54.8530575,30.9634023 54.9293793,31.0801839 54.985931,31.1684598 C55.042023,31.2571954 55.0944368,31.3496092 55.1427126,31.4461609 C55.1909885,31.5427126 55.2434023,31.6512184 55.299954,31.7716782 C55.356046,31.8925977 55.424092,32.0493793 55.5050115,32.2424828 C55.5689195,32.419954 55.6291494,32.5886897 55.6857011,32.7496092 C55.7417931,32.9105287 55.7946667,33.0994943 55.8424828,33.3169655 C55.8912184,33.533977 55.9270805,33.7836322 55.9514483,34.0650115 C55.9753563,34.3468506 55.9877701,34.6889195 55.9877701,35.0907586 C55.9877701,35.2355862 55.9790345,35.4374253 55.9634023,35.6944368 C55.9473103,35.951908 55.8948966,36.2374253 55.8066207,36.5509885 C55.7178851,36.8650115 55.5808736,37.1909885 55.3965057,37.5289195 C55.2107586,37.8668506 54.9496092,38.1886897 54.6116782,38.4944368 C54.3542069,38.7197241 54.0723678,38.9371954 53.7670805,39.1463908 C53.4613333,39.3555862 53.1473103,39.5004138 52.8254713,39.5804138 C52.4548966,39.6769655 52.1408736,39.7376552 51.8843218,39.7615632 C51.6263908,39.785931 51.3850115,39.7978851 51.1601839,39.7978851 C50.9827126,39.7978851 50.8254713,39.7937471 50.6889195,39.785931 C50.551908,39.7776552 50.4075402,39.7615632 50.2548966,39.7376552 C50.1017931,39.7132874 49.9371954,39.6811034 49.7601839,39.6411034 C49.5827126,39.6006437 49.3652414,39.5565057 49.1082299,39.5082299 C48.7376552,39.4277701 48.4567356,39.3312184 48.2636322,39.2185747 C48.070069,39.1063908 47.9735172,38.8806437 47.9735172,38.5427126 L47.9735172,37.3358161 Z" id="Fill-14" fill="#FFFFFF"></path>
            <path d="M57.2905747,26.4254713 C57.2262069,26.4415632 57.1696552,26.453977 57.1218391,26.4617931 C57.0731034,26.470069 57.0165517,26.4737471 56.9531034,26.4737471 C56.8565517,26.4737471 56.7434483,26.4457011 56.6147126,26.3891494 C56.485977,26.3330575 56.3977011,26.2645517 56.3494253,26.184092 C56.3494253,26.168 56.3448276,26.1036322 56.3374713,25.9909885 C56.3287356,25.8788046 56.3213793,25.7537471 56.3131034,25.6167356 C56.3043678,25.4801839 56.2970115,25.3597241 56.2887356,25.2548966 C56.2809195,25.1505287 56.2767816,25.082023 56.2767816,25.0493793 C56.2767816,24.9854713 56.2845977,24.8443218 56.3011494,24.6268506 C56.3167816,24.4098391 56.3250575,24.2613333 56.3250575,24.1804138 C56.3250575,24.1165057 56.3213793,23.9753563 56.3131034,23.7583448 C56.3043678,23.5408736 56.3011494,23.3923678 56.3011494,23.311908 C56.3011494,23.2148966 56.3131034,23.0985747 56.3374713,22.9615632 C56.3613793,22.8250115 56.4377011,22.7165057 56.5664368,22.6355862 C56.6629885,22.5716782 56.8234483,22.5312184 57.0496552,22.5151264 C57.2744828,22.4990345 57.4514943,22.4907586 57.5802299,22.4907586 C57.6445977,22.4907586 57.7852874,22.4948966 58.0027586,22.5031724 C58.2197701,22.5114483 58.3687356,22.5151264 58.4496552,22.5151264 L58.6422989,22.5151264 C58.7388506,22.5151264 58.8432184,22.5114483 58.9563218,22.5031724 C59.0685057,22.4948966 59.1733333,22.4870805 59.2703448,22.4788046 C59.3668966,22.4709885 59.4390805,22.4668506 59.4868966,22.4668506 L60.7181609,22.4668506 C60.8303448,22.4668506 60.9434483,22.4709885 61.056092,22.4788046 C61.1687356,22.4870805 61.2891954,22.4907586 61.4183908,22.4907586 L61.6110345,22.4907586 C61.7075862,22.4907586 61.771954,22.4829425 61.8041379,22.4668506 L63.4942529,22.4668506 C63.7678161,22.4668506 63.9287356,22.5914483 63.9770115,22.8411034 C64.0248276,23.0907586 64.0574713,23.351908 64.0735632,23.6254713 L64.0735632,23.9873103 C64.0735632,24.1647816 64.0772414,24.3496092 64.0855172,24.5427126 C64.0933333,24.7358161 64.097931,24.9252414 64.097931,25.110069 L64.097931,25.4838621 C64.097931,26.128 63.856092,26.4493793 63.3733333,26.4493793 C63.3406897,26.4493793 63.2528736,26.4415632 63.1075862,26.4254713 C62.9632184,26.4093793 62.8744828,26.4011034 62.8422989,26.4011034 C62.5204598,26.4011034 62.3071264,26.4296092 62.2027586,26.4857011 C62.097931,26.5422529 62.045977,26.6990345 62.045977,26.9565057 L62.045977,27.4029425 C62.045977,27.5882299 62.0537931,27.7450115 62.0703448,27.8737471 C62.0703448,27.922023 62.0735632,28.0268506 62.0822989,28.1877701 C62.0896552,28.3486897 62.097931,28.5174253 62.1062069,28.6944368 C62.114023,28.8714483 62.1222989,29.0365057 62.1301149,29.1891494 C62.1383908,29.3422529 62.1425287,29.4512184 62.1425287,29.5151264 C62.1425287,29.5794943 62.1383908,29.6921379 62.1301149,29.8530575 C62.1222989,30.013977 62.1181609,30.1873103 62.1181609,30.3716782 C62.1181609,30.5569655 62.114023,30.7302989 62.1062069,30.8907586 C62.097931,31.0521379 62.0937931,31.1647816 62.0937931,31.2286897 C62.0937931,31.3252414 62.097931,31.4907586 62.1062069,31.7234023 C62.114023,31.9569655 62.1222989,32.2107586 62.1301149,32.4838621 C62.1383908,32.7578851 62.1462069,33.0190345 62.1544828,33.2686897 C62.1622989,33.5183448 62.1664368,33.6907586 62.1664368,33.7873103 C62.1664368,33.8838621 62.1622989,34.0493793 62.1544828,34.282023 C62.1462069,34.5155862 62.1425287,34.7652414 62.1425287,35.0305287 C62.1425287,35.2958161 62.1383908,35.5496092 62.1301149,35.7909885 C62.1222989,36.0323678 62.1181609,36.2011034 62.1181609,36.2976552 C62.1181609,36.5716782 62.1222989,36.8374253 62.1301149,37.0944368 C62.1383908,37.351908 62.1425287,37.6176552 62.1425287,37.8907586 C62.1425287,37.9555862 62.1462069,38.0962759 62.1544828,38.3132874 C62.1622989,38.5307586 62.1664368,38.6714483 62.1664368,38.7358161 C62.1664368,38.784092 62.1622989,38.8562759 62.1544828,38.9532874 C62.1462069,39.0498391 62.1181609,39.1422529 62.0703448,39.2305287 C62.0216092,39.3192644 61.9494253,39.3997241 61.8528736,39.471908 C61.7563218,39.5445517 61.6193103,39.5804138 61.4422989,39.5804138 C61.377931,39.5804138 61.3177011,39.5767356 61.2616092,39.5684598 C61.2050575,39.5601839 61.1365517,39.5482299 61.056092,39.5321379 C60.9268966,39.5165057 60.8105747,39.5082299 60.7062069,39.5082299 L60.3563218,39.5082299 L60.0666667,39.5082299 C60.0018391,39.5082299 59.8652874,39.5123678 59.6565517,39.5201839 C59.4464368,39.5284598 59.3181609,39.539954 59.2703448,39.5565057 C59.1894253,39.5565057 59.1167816,39.5643218 59.0528736,39.5804138 C58.988046,39.5965057 58.9158621,39.6047816 58.8354023,39.6047816 C58.6744828,39.6047816 58.5337931,39.5482299 58.4128736,39.4355862 C58.2924138,39.3234023 58.2321839,39.1942069 58.2321839,39.0498391 C58.2321839,38.9693793 58.2395402,38.9128276 58.2565517,38.8806437 C58.2882759,38.7197241 58.3043678,38.5666207 58.3043678,38.4217931 C58.3043678,38.2769655 58.3126437,38.059954 58.3287356,37.7702989 L58.3287356,36.7923678 C58.3287356,36.4305287 58.3245977,36.0608736 58.3163218,35.6824828 C58.3085057,35.3045517 58.3043678,34.933977 58.3043678,34.5721379 L58.3043678,33.5942069 L58.3043678,33.1716782 C58.3043678,32.9707586 58.3002299,32.7578851 58.2924138,32.5321379 C58.2841379,32.3068506 58.28,32.093977 58.28,31.8925977 L58.28,31.470069 C58.28,31.1965057 58.2841379,30.9192644 58.2924138,30.6374253 C58.3002299,30.356046 58.3043678,30.0783448 58.3043678,29.8047816 L58.3043678,28.0424828 C58.3043678,27.9142069 58.3085057,27.7491494 58.3163218,27.5477701 C58.3245977,27.3468506 58.3287356,27.1822529 58.3287356,27.0530575 C58.3287356,26.7312184 58.2565517,26.545931 58.1112644,26.4976552 C57.9664368,26.4493793 57.8055172,26.4254713 57.6285057,26.4254713 L57.2905747,26.4254713 Z" id="Fill-16" fill="#FFFFFF"></path>
            <path d="M5.4216092,32.2263448 C6.84505747,33.2465747 7.99034483,34.0704828 8.15494253,36.6645057 L6.74528736,36.1072644 C6.68689655,36.0842759 6.62114943,36.1035862 6.58252874,36.1527816 C6.5645977,36.1776092 6.55494253,36.2074943 6.55494253,36.2364598 C6.55494253,36.2663448 6.5645977,36.2971494 6.58344828,36.321977 L9.21011494,39.738069 C9.23632184,39.7725517 9.27770115,39.7927816 9.32091954,39.7927816 C9.36367816,39.7927816 9.40505747,39.7725517 9.4308046,39.738069 L12.0574713,36.321977 C12.096092,36.2718621 12.096092,36.2028966 12.0583908,36.1532414 C12.0206897,36.1035862 11.954023,36.0842759 11.8956322,36.1072644 L10.4464368,36.6796782 C10.2468966,32.8746207 8.32091954,31.4902529 6.75494253,30.3674943 C5.33655172,29.350023 4.20091954,28.533931 4.08137931,25.9316322 L5.5016092,26.4925517 C5.56045977,26.5155402 5.62666667,26.4971494 5.66436782,26.4470345 C5.68275862,26.4226667 5.69241379,26.3932414 5.69241379,26.3633563 C5.69241379,26.3334713 5.68275862,26.3035862 5.66436782,26.2782989 L3.03678161,22.8617471 C3.01103448,22.8281839 2.97057471,22.807954 2.92689655,22.807954 C2.88367816,22.807954 2.84229885,22.8281839 2.81655172,22.8617471 L0.189885057,26.2782989 C0.152183908,26.3284138 0.151264368,26.3969195 0.189885057,26.4470345 C0.227126437,26.4971494 0.293793103,26.5155402 0.351264368,26.4925517 L1.79310345,25.9238161 C1.93563218,29.7247356 3.8616092,31.1072644 5.4216092,32.2263448 L5.4216092,32.2263448 Z M6.58344828,26.2782989 C6.5645977,26.3035862 6.55494253,26.3334713 6.55494253,26.3633563 C6.55494253,26.3932414 6.5645977,26.4226667 6.58344828,26.4470345 C6.62114943,26.4971494 6.68781609,26.5164598 6.74528736,26.4925517 L8.15632184,25.9366897 C8.03264368,27.8672644 7.36597701,28.8171494 6.44689655,29.5969195 C6.62712644,29.7334713 6.81517241,29.8695632 7.01149425,30.0102529 C7.41701149,30.3012874 7.86114943,30.619908 8.29977011,31.0042759 C9.37701149,29.9762299 10.3112644,28.5091034 10.4464368,25.9201379 L11.8956322,26.4925517 C11.954023,26.5155402 12.0206897,26.4971494 12.0583908,26.4470345 C12.096092,26.3969195 12.096092,26.3284138 12.0574713,26.2782989 L9.4308046,22.8617471 C9.40505747,22.8281839 9.36413793,22.807954 9.32091954,22.807954 C9.27770115,22.807954 9.23632184,22.8281839 9.21011494,22.8617471 L6.58344828,26.2782989 Z M3.03678161,39.738069 C3.01103448,39.7725517 2.97057471,39.7927816 2.92689655,39.7927816 C2.88367816,39.7927816 2.84229885,39.7725517 2.81655172,39.738069 L0.189885057,36.321977 C0.152183908,36.2718621 0.151264368,36.2028966 0.189885057,36.1532414 C0.227126437,36.1035862 0.293793103,36.0842759 0.351264368,36.1072644 L1.79310345,36.6769195 C1.89057471,34.0897931 2.81333333,32.6231264 3.88597701,31.5969195 C4.32137931,31.9785287 4.76275862,32.2957701 5.16551724,32.5849655 C5.36597701,32.7284138 5.55632184,32.8649655 5.73977011,33.0038161 C4.82436782,33.7812874 4.17103448,34.7284138 4.08137931,36.6691034 L5.5016092,36.1072644 C5.56045977,36.0851954 5.62666667,36.1035862 5.66436782,36.1532414 C5.68275862,36.1776092 5.69241379,36.2074943 5.69241379,36.2373793 C5.69241379,36.2672644 5.68275862,36.2971494 5.66436782,36.321977 L3.03678161,39.738069 Z" id="Fill-18" fill="#FFFFFF"></path>
        </g>
    </g>
</svg>