<?xml version="1.0" standalone="no"?>
<!DOCTYPE svg PUBLIC "-//W3C//DTD SVG 20010904//EN"
 "http://www.w3.org/TR/2001/REC-SVG-20010904/DTD/svg10.dtd">
<svg version="1.0" xmlns="http://www.w3.org/2000/svg"
 width="286.000000pt" height="286.000000pt" viewBox="0 0 286.000000 286.000000"
 preserveAspectRatio="xMidYMid meet">
<metadata>
Created by potrace 1.11, written by Peter Selinger 2001-2013
</metadata>
<g transform="translate(0.000000,286.000000) scale(0.100000,-0.100000)"
fill="#000000" stroke="none">
<path d="M788 2728 c-51 -68 -116 -152 -144 -188 -127 -163 -214 -281 -214
-289 0 -20 33 -18 92 6 35 14 90 36 124 48 l60 23 2 -46 c3 -70 12 -130 38
-262 21 -105 90 -261 167 -374 40 -61 195 -222 252 -263 393 -286 474 -367
543 -543 32 -83 47 -149 58 -254 5 -47 3 -58 -7 -54 -8 3 -60 24 -117 47 -107
43 -127 47 -137 31 -5 -9 26 -64 45 -80 3 -3 19 -23 36 -45 16 -22 34 -45 39
-51 6 -7 80 -102 164 -214 85 -111 163 -205 172 -210 14 -8 30 8 90 88 41 53
76 99 79 102 3 3 72 92 154 198 138 181 161 222 123 222 -7 0 -64 -21 -126
-46 -80 -32 -116 -42 -121 -34 -4 6 -10 44 -14 83 -9 95 -11 111 -30 188 -73
314 -221 513 -566 764 -263 191 -362 306 -415 480 -25 83 -30 108 -41 212 l-6
62 127 -51 c131 -51 159 -53 135 -8 -10 18 -127 174 -211 280 -23 29 -30 39
-142 185 -46 61 -91 111 -100 113 -9 2 -49 -41 -109 -120z"/>
<path d="M1727 2554 c-269 -351 -269 -350 -87 -279 63 25 119 45 123 45 13 0
-1 -118 -23 -207 -31 -121 -90 -229 -176 -321 l-74 -80 72 -54 c112 -84 188
-141 215 -161 l23 -19 43 48 c23 26 49 55 57 64 28 29 94 135 131 210 63 128
108 304 123 480 3 25 5 46 5 46 1 1 52 -18 114 -43 124 -50 150 -55 155 -33 3
19 -437 594 -458 598 -10 2 -97 -104 -243 -294z"/>
<path d="M1002 1322 c-136 -152 -232 -344 -267 -532 -18 -98 -21 -125 -26
-213 -1 -26 -5 -47 -9 -47 -3 0 -57 20 -119 45 -62 25 -119 45 -126 45 -45 0
-29 -23 283 -426 72 -95 138 -176 145 -182 17 -15 24 -9 97 88 36 46 73 94 82
105 63 77 298 389 298 397 0 30 -35 20 -258 -69 -11 -5 -12 6 -8 53 14 135 35
219 77 306 38 79 70 124 137 191 l57 59 -30 24 c-17 14 -52 40 -80 59 -27 19
-84 61 -126 94 l-76 59 -51 -56z"/>
</g>
</svg>
